<svg xmlns="http://www.w3.org/2000/svg" viewBox="0 0 400 400" width="400" height="400">
  <defs>
    <radialGradient id="tbg" cx="50%" cy="38%" r="75%">
      <stop offset="0%" stop-color="#0c2a2c"/>
      <stop offset="60%" stop-color="#071417"/>
      <stop offset="100%" stop-color="#04090b"/>
    </radialGradient>
    <linearGradient id="tteal" x1="0" y1="0" x2="1" y2="1">
      <stop offset="0%" stop-color="#5FF5E9"/>
      <stop offset="100%" stop-color="#0FB5A8"/>
    </linearGradient>
    <filter id="tglow" x="-30%" y="-30%" width="160%" height="160%">
      <feGaussianBlur stdDeviation="6" result="b"/>
      <feMerge><feMergeNode in="b"/><feMergeNode in="SourceGraphic"/></feMerge>
    </filter>
  </defs>
  <circle cx="200" cy="200" r="196" fill="url(#tbg)"/>
  <circle cx="200" cy="200" r="190" fill="none" stroke="url(#tteal)" stroke-width="5" filter="url(#tglow)" opacity="0.95"/>
  <circle cx="200" cy="200" r="176" fill="none" stroke="#19E3D4" stroke-width="1" opacity="0.25"/>
  <!-- sunglasses -->
  <g filter="url(#tglow)">
    <path d="M96 150 h208" stroke="url(#tteal)" stroke-width="8" stroke-linecap="round"/>
    <path d="M104 152 q4 60 56 60 q52 0 50 -54 q-1 -8 -8 -8 h-90 q-8 0 -8 2" fill="#0FB5A8" opacity="0.20" stroke="url(#tteal)" stroke-width="7" stroke-linejoin="round"/>
    <path d="M296 152 q-4 60 -56 60 q-52 0 -50 -54 q1 -8 8 -8 h90 q8 0 8 2" fill="#0FB5A8" opacity="0.20" stroke="url(#tteal)" stroke-width="7" stroke-linejoin="round"/>
  </g>
  <!-- moustache -->
  <path d="M165 248 q35 22 70 0" fill="none" stroke="url(#tteal)" stroke-width="8" stroke-linecap="round" filter="url(#tglow)"/>
  <text x="200" y="318" text-anchor="middle" font-family="Inter, Arial, sans-serif" font-size="44" font-weight="900" fill="url(#tteal)" letter-spacing="1" filter="url(#tglow)">MR TERPYY</text>
  <text x="200" y="350" text-anchor="middle" font-family="Inter, Arial, sans-serif" font-size="17" font-weight="700" fill="#6B8079" letter-spacing="6">ROULO.GG</text>
</svg>
